<svg xmlns="http://www.w3.org/2000/svg" width="4311" height="623" viewBox="0 0 4311 623">
  <defs>
    <style>
      .cls-1 {
        fill-rule: evenodd;
      }
    </style>
  </defs>
  <path id="TM" class="cls-1" d="M4179.28,84.715V15.739h23.05V8.2h-55.37v7.543h23.05V84.715h9.27Zm43.67,0V24.7l25.81,49.081h6.95l25.8-49.191V84.715h9.27V8.2h-10.92l-27.57,53.345L4224.49,8.2h-10.8V84.715h9.26Z"/>
  <path id="Kynetic" class="cls-1" d="M339.505,77.611l58.028,18.044-236.2,223.912V84.993l71.1-7.382V57.927H6.05V77.611l71.1,7.382V578.747l-71.1,7.381v19.685H232.44V586.128l-71.1-7.381V343.353L381.187,577.926l-58.028,4.922v22.965H560.174V582.848l-65.383-5.742L226.719,300.7,438.4,98.936l67.018-22.145V57.927H339.505V77.611Zm675.9,508.517-71.1-7.381V363.857L1106.94,97.3l62.11-19.684V57.927H1003.14V77.611l61.3,18.864L924.683,327.769,762.859,84.173l62.931-9.022V57.927H605.121V75.971l62.114,9.022L860.117,370.419V578.747l-71.105,7.381v19.685H1015.4V586.128ZM1695.39,77.611l62.93,18.864V478.684L1411.79,57.927H1277.75V76.791l71.11,8.2V565.624l-65.39,20.5v19.685h168.37V586.128l-67.84-20.5V155.529l374.32,450.284h44.95V96.476l57.21-18.864V57.927H1695.39V77.611Zm734.74,528.2,9.81-122.208h-21.25l-38.42,93.5-212.49,2.461V335.151h165.09l24.52,62.334h17.16V244.93h-16.34l-25.34,60.694H2167.78V84.993l187.97,2.461,27.79,86.94h21.25l-0.82-116.467H2012.49V75.971l71.11,9.022V578.747l-71.11,7.381v19.685h417.64ZM3044.72,58.747l-238.65-1.64-238.65,1.64V182.6h23.7l27.79-94.322,144.66-1.64V578.747l-76.01,7.381v19.685h236.2V586.128l-76.01-7.381V86.634l144.66,1.64L3020.2,182.6h24.52V58.747Zm357.15,527.381-71.1-7.381V84.993l71.1-7.382V57.927H3175.48V77.611l71.1,7.382V578.747l-71.1,7.381v19.685h226.39V586.128ZM3648.7,119.441q-45.78,33.641-72.33,91.451t-26.56,125.9q0,68.088,17.57,115.237,17.565,47.173,46.58,76.687t70.7,48.391a345.776,345.776,0,0,0,85.41,26.246q43.71,7.382,111.15,7.382t161.42-19.685l4.9-123.028-22.89-.82-30.23,94.322q-52.32,19.684-118.51,19.684-98.91,0-162.24-59.463-63.345-59.459-63.34-184.133t64.98-189.873q64.98-65.2,163.87-65.205,60.465,0,104.61,18.865l27.79,107.445h26.15l-4.9-149.275-168.36-7.382h0q-125.055,0-215.77,67.256h0Z"/>
</svg>
